<?xml version="1.0" encoding="UTF-8" standalone="no"?>
<!DOCTYPE svg PUBLIC "-//W3C//DTD SVG 1.1//EN"
 "http://www.w3.org/Graphics/SVG/1.1/DTD/svg11.dtd">
<!-- Generated by graphviz version 2.47.0 (20210316.0004)
 -->
<!-- Title: dependencies Pages: 1 -->
<svg width="504pt" height="211pt"
 viewBox="0.00 0.00 504.00 211.00" xmlns="http://www.w3.org/2000/svg" xmlns:xlink="http://www.w3.org/1999/xlink">
<g id="graph0" class="graph" transform="scale(1 1) rotate(0) translate(4 207)">
<title>dependencies</title>
<polygon fill="white" stroke="transparent" points="-4,4 -4,-207 500,-207 500,4 -4,4"/>
<text text-anchor="start" x="227.01" y="-42.4" font-family="Times-12" font-weight="bold" font-size="14.00">Legend</text>
<polygon fill="#ffffb3" stroke="transparent" points="14,-10 14,-30 34,-30 34,-10 14,-10"/>
<text text-anchor="start" x="37.63" y="-15.4" font-family="Times-12" font-size="14.00"> &#160;Declarations</text>
<polygon fill="#8dd3c7" stroke="transparent" points="127,-10 127,-30 147,-30 147,-10 127,-10"/>
<text text-anchor="start" x="150.73" y="-15.4" font-family="Times-12" font-size="14.00"> &#160;Module</text>
<polygon fill="#80b1d3" stroke="transparent" points="213,-10 213,-30 233,-30 233,-10 213,-10"/>
<text text-anchor="start" x="236.78" y="-15.4" font-family="Times-12" font-size="14.00"> &#160;Bootstrap</text>
<polygon fill="#fdb462" stroke="transparent" points="310,-10 310,-30 330,-30 330,-10 310,-10"/>
<text text-anchor="start" x="333.67" y="-15.4" font-family="Times-12" font-size="14.00"> &#160;Providers</text>
<polygon fill="#fb8072" stroke="transparent" points="406,-10 406,-30 426,-30 426,-10 406,-10"/>
<text text-anchor="start" x="429.73" y="-15.4" font-family="Times-12" font-size="14.00"> &#160;Exports</text>
<g id="clust1" class="cluster">
<title>cluster_PurchaseOrderModule</title>
<polygon fill="none" stroke="black" stroke-dasharray="1,5" points="41,-70 41,-195 455,-195 455,-70 41,-70"/>
</g>
<g id="clust6" class="cluster">
<title>cluster_PurchaseOrderModule_providers</title>
<polygon fill="none" stroke="black" points="49,-78 49,-130 447,-130 447,-78 49,-78"/>
</g>
<!-- GeofencingService -->
<g id="node1" class="node">
<title>GeofencingService</title>
<ellipse fill="#fdb462" stroke="black" cx="354" cy="-104" rx="85.07" ry="18"/>
<text text-anchor="middle" x="354" y="-99.8" font-family="Times,serif" font-size="14.00">GeofencingService</text>
</g>
<!-- PurchaseOrderModule -->
<g id="node3" class="node">
<title>PurchaseOrderModule</title>
<polygon fill="#8dd3c7" stroke="black" points="325.22,-187 322.22,-191 301.22,-191 298.22,-187 182.78,-187 182.78,-151 325.22,-151 325.22,-187"/>
<text text-anchor="middle" x="254" y="-164.8" font-family="Times,serif" font-size="14.00">PurchaseOrderModule</text>
</g>
<!-- GeofencingService&#45;&gt;PurchaseOrderModule -->
<g id="edge1" class="edge">
<title>GeofencingService&#45;&gt;PurchaseOrderModule</title>
<path fill="none" stroke="black" d="M297.16,-117.47C297.16,-117.47 297.16,-140.86 297.16,-140.86"/>
<polygon fill="black" stroke="black" points="293.66,-140.86 297.16,-150.86 300.66,-140.86 293.66,-140.86"/>
</g>
<!-- PurchaseOrderService -->
<g id="node2" class="node">
<title>PurchaseOrderService</title>
<ellipse fill="#fdb462" stroke="black" cx="154" cy="-104" rx="97.23" ry="18"/>
<text text-anchor="middle" x="154" y="-99.8" font-family="Times,serif" font-size="14.00">PurchaseOrderService</text>
</g>
<!-- PurchaseOrderService&#45;&gt;PurchaseOrderModule -->
<g id="edge2" class="edge">
<title>PurchaseOrderService&#45;&gt;PurchaseOrderModule</title>
<path fill="none" stroke="black" d="M217,-117.78C217,-117.78 217,-140.55 217,-140.55"/>
<polygon fill="black" stroke="black" points="213.5,-140.55 217,-150.55 220.5,-140.55 213.5,-140.55"/>
</g>
</g>
</svg>
