<?xml version="1.0" encoding="UTF-8" standalone="no"?>
<!DOCTYPE svg PUBLIC "-//W3C//DTD SVG 1.1//EN"
 "http://www.w3.org/Graphics/SVG/1.1/DTD/svg11.dtd">
<!-- Generated by graphviz version 2.47.0 (20210316.0004)
 -->
<!-- Title: dependencies Pages: 1 -->
<svg width="2088pt" height="211pt"
 viewBox="0.00 0.00 2088.00 211.00" xmlns="http://www.w3.org/2000/svg" xmlns:xlink="http://www.w3.org/1999/xlink">
<g id="graph0" class="graph" transform="scale(1 1) rotate(0) translate(4 207)">
<title>dependencies</title>
<polygon fill="white" stroke="transparent" points="-4,4 -4,-207 2084,-207 2084,4 -4,4"/>
<text text-anchor="start" x="1019.01" y="-42.4" font-family="Times-12" font-weight="bold" font-size="14.00">Legend</text>
<polygon fill="#ffffb3" stroke="transparent" points="806,-10 806,-30 826,-30 826,-10 806,-10"/>
<text text-anchor="start" x="829.63" y="-15.4" font-family="Times-12" font-size="14.00"> &#160;Declarations</text>
<polygon fill="#8dd3c7" stroke="transparent" points="919,-10 919,-30 939,-30 939,-10 919,-10"/>
<text text-anchor="start" x="942.73" y="-15.4" font-family="Times-12" font-size="14.00"> &#160;Module</text>
<polygon fill="#80b1d3" stroke="transparent" points="1005,-10 1005,-30 1025,-30 1025,-10 1005,-10"/>
<text text-anchor="start" x="1028.78" y="-15.4" font-family="Times-12" font-size="14.00"> &#160;Bootstrap</text>
<polygon fill="#fdb462" stroke="transparent" points="1102,-10 1102,-30 1122,-30 1122,-10 1102,-10"/>
<text text-anchor="start" x="1125.67" y="-15.4" font-family="Times-12" font-size="14.00"> &#160;Providers</text>
<polygon fill="#fb8072" stroke="transparent" points="1198,-10 1198,-30 1218,-30 1218,-10 1198,-10"/>
<text text-anchor="start" x="1221.73" y="-15.4" font-family="Times-12" font-size="14.00"> &#160;Exports</text>
<g id="clust1" class="cluster">
<title>cluster_AppModule</title>
<polygon fill="none" stroke="black" stroke-dasharray="1,5" points="8,-70 8,-195 2072,-195 2072,-70 8,-70"/>
</g>
<g id="clust3" class="cluster">
<title>cluster_AppModule_imports</title>
<polygon fill="none" stroke="black" points="1172,-78 1172,-130 2064,-130 2064,-78 1172,-78"/>
</g>
<g id="clust6" class="cluster">
<title>cluster_AppModule_providers</title>
<polygon fill="none" stroke="black" points="16,-78 16,-130 1164,-130 1164,-78 16,-78"/>
</g>
<!-- CustomerModule -->
<g id="node1" class="node">
<title>CustomerModule</title>
<polygon fill="#8dd3c7" stroke="black" points="2055.99,-122 2052.99,-126 2031.99,-126 2028.99,-122 1942.01,-122 1942.01,-86 2055.99,-86 2055.99,-122"/>
<text text-anchor="middle" x="1999" y="-99.8" font-family="Times,serif" font-size="14.00">CustomerModule</text>
</g>
<!-- AppModule -->
<g id="node8" class="node">
<title>AppModule</title>
<polygon fill="#8dd3c7" stroke="black" points="1202.66,-187 1199.66,-191 1178.66,-191 1175.66,-187 1119.34,-187 1119.34,-151 1202.66,-151 1202.66,-187"/>
<text text-anchor="middle" x="1161" y="-164.8" font-family="Times,serif" font-size="14.00">AppModule</text>
</g>
<!-- CustomerModule&#45;&gt;AppModule -->
<g id="edge1" class="edge">
<title>CustomerModule&#45;&gt;AppModule</title>
<path fill="none" stroke="black" d="M1999,-122.09C1999,-145.13 1999,-182 1999,-182 1999,-182 1212.84,-182 1212.84,-182"/>
<polygon fill="black" stroke="black" points="1212.84,-178.5 1202.84,-182 1212.84,-185.5 1212.84,-178.5"/>
</g>
<!-- GeofencingModule -->
<g id="node2" class="node">
<title>GeofencingModule</title>
<polygon fill="#8dd3c7" stroke="black" points="1924.35,-122 1921.35,-126 1900.35,-126 1897.35,-122 1799.65,-122 1799.65,-86 1924.35,-86 1924.35,-122"/>
<text text-anchor="middle" x="1862" y="-99.8" font-family="Times,serif" font-size="14.00">GeofencingModule</text>
</g>
<!-- GeofencingModule&#45;&gt;AppModule -->
<g id="edge2" class="edge">
<title>GeofencingModule&#45;&gt;AppModule</title>
<path fill="none" stroke="black" d="M1862,-122.04C1862,-143.66 1862,-177 1862,-177 1862,-177 1212.75,-177 1212.75,-177"/>
<polygon fill="black" stroke="black" points="1212.75,-173.5 1202.75,-177 1212.75,-180.5 1212.75,-173.5"/>
</g>
<!-- LockerModule -->
<g id="node3" class="node">
<title>LockerModule</title>
<polygon fill="#8dd3c7" stroke="black" points="1781.69,-122 1778.69,-126 1757.69,-126 1754.69,-122 1682.31,-122 1682.31,-86 1781.69,-86 1781.69,-122"/>
<text text-anchor="middle" x="1732" y="-99.8" font-family="Times,serif" font-size="14.00">LockerModule</text>
</g>
<!-- LockerModule&#45;&gt;AppModule -->
<g id="edge3" class="edge">
<title>LockerModule&#45;&gt;AppModule</title>
<path fill="none" stroke="black" d="M1732,-122.22C1732,-142.37 1732,-172 1732,-172 1732,-172 1212.99,-172 1212.99,-172"/>
<polygon fill="black" stroke="black" points="1212.99,-168.5 1202.99,-172 1212.99,-175.5 1212.99,-168.5"/>
</g>
<!-- PrismaModule -->
<g id="node4" class="node">
<title>PrismaModule</title>
<polygon fill="#8dd3c7" stroke="black" points="1664.43,-122 1661.43,-126 1640.43,-126 1637.43,-122 1565.57,-122 1565.57,-86 1664.43,-86 1664.43,-122"/>
<text text-anchor="middle" x="1615" y="-99.8" font-family="Times,serif" font-size="14.00">PrismaModule</text>
</g>
<!-- PrismaModule&#45;&gt;AppModule -->
<g id="edge4" class="edge">
<title>PrismaModule&#45;&gt;AppModule</title>
<path fill="none" stroke="black" d="M1615,-122.22C1615,-140.83 1615,-167 1615,-167 1615,-167 1212.9,-167 1212.9,-167"/>
<polygon fill="black" stroke="black" points="1212.9,-163.5 1202.9,-167 1212.9,-170.5 1212.9,-163.5"/>
</g>
<!-- ProductModule -->
<g id="node5" class="node">
<title>ProductModule</title>
<polygon fill="#8dd3c7" stroke="black" points="1547.6,-122 1544.6,-126 1523.6,-126 1520.6,-122 1444.4,-122 1444.4,-86 1547.6,-86 1547.6,-122"/>
<text text-anchor="middle" x="1496" y="-99.8" font-family="Times,serif" font-size="14.00">ProductModule</text>
</g>
<!-- ProductModule&#45;&gt;AppModule -->
<g id="edge5" class="edge">
<title>ProductModule&#45;&gt;AppModule</title>
<path fill="none" stroke="black" d="M1496,-122.03C1496,-139.06 1496,-162 1496,-162 1496,-162 1212.75,-162 1212.75,-162"/>
<polygon fill="black" stroke="black" points="1212.75,-158.5 1202.75,-162 1212.75,-165.5 1212.75,-158.5"/>
</g>
<!-- PurchaseOrderModule -->
<g id="node6" class="node">
<title>PurchaseOrderModule</title>
<polygon fill="#8dd3c7" stroke="black" points="1426.22,-122 1423.22,-126 1402.22,-126 1399.22,-122 1283.78,-122 1283.78,-86 1426.22,-86 1426.22,-122"/>
<text text-anchor="middle" x="1355" y="-99.8" font-family="Times,serif" font-size="14.00">PurchaseOrderModule</text>
</g>
<!-- PurchaseOrderModule&#45;&gt;AppModule -->
<g id="edge6" class="edge">
<title>PurchaseOrderModule&#45;&gt;AppModule</title>
<path fill="none" stroke="black" d="M1355,-122.24C1355,-137.57 1355,-157 1355,-157 1355,-157 1213.1,-157 1213.1,-157"/>
<polygon fill="black" stroke="black" points="1213.1,-153.5 1203.1,-157 1213.1,-160.5 1213.1,-153.5"/>
</g>
<!-- UserModule -->
<g id="node7" class="node">
<title>UserModule</title>
<polygon fill="#8dd3c7" stroke="black" points="1265.98,-122 1262.98,-126 1241.98,-126 1238.98,-122 1180.02,-122 1180.02,-86 1265.98,-86 1265.98,-122"/>
<text text-anchor="middle" x="1223" y="-99.8" font-family="Times,serif" font-size="14.00">UserModule</text>
</g>
<!-- UserModule&#45;&gt;AppModule -->
<g id="edge7" class="edge">
<title>UserModule&#45;&gt;AppModule</title>
<path fill="none" stroke="black" d="M1191.42,-122.11C1191.42,-122.11 1191.42,-140.99 1191.42,-140.99"/>
<polygon fill="black" stroke="black" points="1187.92,-140.99 1191.42,-150.99 1194.92,-140.99 1187.92,-140.99"/>
</g>
<!-- AppService -->
<g id="node9" class="node">
<title>AppService</title>
<ellipse fill="#fdb462" stroke="black" cx="1099" cy="-104" rx="56.74" ry="18"/>
<text text-anchor="middle" x="1099" y="-99.8" font-family="Times,serif" font-size="14.00">AppService</text>
</g>
<!-- AppService&#45;&gt;AppModule -->
<g id="edge8" class="edge">
<title>AppService&#45;&gt;AppModule</title>
<path fill="none" stroke="black" d="M1137.4,-117.47C1137.4,-117.47 1137.4,-140.86 1137.4,-140.86"/>
<polygon fill="black" stroke="black" points="1133.9,-140.86 1137.4,-150.86 1140.9,-140.86 1133.9,-140.86"/>
</g>
<!-- CustomerService -->
<g id="node10" class="node">
<title>CustomerService</title>
<ellipse fill="#fdb462" stroke="black" cx="947" cy="-104" rx="77.58" ry="18"/>
<text text-anchor="middle" x="947" y="-99.8" font-family="Times,serif" font-size="14.00">CustomerService</text>
</g>
<!-- CustomerService&#45;&gt;AppModule -->
<g id="edge9" class="edge">
<title>CustomerService&#45;&gt;AppModule</title>
<path fill="none" stroke="black" d="M947,-122.24C947,-137.57 947,-157 947,-157 947,-157 1109.23,-157 1109.23,-157"/>
<polygon fill="black" stroke="black" points="1109.23,-160.5 1119.23,-157 1109.23,-153.5 1109.23,-160.5"/>
</g>
<!-- GeofencingService -->
<g id="node11" class="node">
<title>GeofencingService</title>
<ellipse fill="#fdb462" stroke="black" cx="766" cy="-104" rx="85.07" ry="18"/>
<text text-anchor="middle" x="766" y="-99.8" font-family="Times,serif" font-size="14.00">GeofencingService</text>
</g>
<!-- GeofencingService&#45;&gt;AppModule -->
<g id="edge10" class="edge">
<title>GeofencingService&#45;&gt;AppModule</title>
<path fill="none" stroke="black" d="M766,-122.03C766,-139.06 766,-162 766,-162 766,-162 1109.1,-162 1109.1,-162"/>
<polygon fill="black" stroke="black" points="1109.1,-165.5 1119.1,-162 1109.1,-158.5 1109.1,-165.5"/>
</g>
<!-- PrismaService -->
<g id="node12" class="node">
<title>PrismaService</title>
<ellipse fill="#fdb462" stroke="black" cx="596" cy="-104" rx="66.63" ry="18"/>
<text text-anchor="middle" x="596" y="-99.8" font-family="Times,serif" font-size="14.00">PrismaService</text>
</g>
<!-- PrismaService&#45;&gt;AppModule -->
<g id="edge11" class="edge">
<title>PrismaService&#45;&gt;AppModule</title>
<path fill="none" stroke="black" d="M596,-122.22C596,-140.83 596,-167 596,-167 596,-167 1108.99,-167 1108.99,-167"/>
<polygon fill="black" stroke="black" points="1108.99,-170.5 1118.99,-167 1108.99,-163.5 1108.99,-170.5"/>
</g>
<!-- ProductService -->
<g id="node13" class="node">
<title>ProductService</title>
<ellipse fill="#fdb462" stroke="black" cx="441" cy="-104" rx="70.06" ry="18"/>
<text text-anchor="middle" x="441" y="-99.8" font-family="Times,serif" font-size="14.00">ProductService</text>
</g>
<!-- ProductService&#45;&gt;AppModule -->
<g id="edge12" class="edge">
<title>ProductService&#45;&gt;AppModule</title>
<path fill="none" stroke="black" d="M441,-122.22C441,-142.37 441,-172 441,-172 441,-172 1109.18,-172 1109.18,-172"/>
<polygon fill="black" stroke="black" points="1109.18,-175.5 1119.18,-172 1109.18,-168.5 1109.18,-175.5"/>
</g>
<!-- PurchaseOrderService -->
<g id="node14" class="node">
<title>PurchaseOrderService</title>
<ellipse fill="#fdb462" stroke="black" cx="256" cy="-104" rx="97.23" ry="18"/>
<text text-anchor="middle" x="256" y="-99.8" font-family="Times,serif" font-size="14.00">PurchaseOrderService</text>
</g>
<!-- PurchaseOrderService&#45;&gt;AppModule -->
<g id="edge13" class="edge">
<title>PurchaseOrderService&#45;&gt;AppModule</title>
<path fill="none" stroke="black" d="M256,-122.04C256,-143.66 256,-177 256,-177 256,-177 1109.17,-177 1109.17,-177"/>
<polygon fill="black" stroke="black" points="1109.17,-180.5 1119.17,-177 1109.16,-173.5 1109.17,-180.5"/>
</g>
<!-- UserService -->
<g id="node15" class="node">
<title>UserService</title>
<ellipse fill="#fdb462" stroke="black" cx="82" cy="-104" rx="58.44" ry="18"/>
<text text-anchor="middle" x="82" y="-99.8" font-family="Times,serif" font-size="14.00">UserService</text>
</g>
<!-- UserService&#45;&gt;AppModule -->
<g id="edge14" class="edge">
<title>UserService&#45;&gt;AppModule</title>
<path fill="none" stroke="black" d="M82,-122.09C82,-145.13 82,-182 82,-182 82,-182 1109.03,-182 1109.03,-182"/>
<polygon fill="black" stroke="black" points="1109.03,-185.5 1119.03,-182 1109.03,-178.5 1109.03,-185.5"/>
</g>
</g>
</svg>
