<svg width="22" height="22" viewBox="0 0 22 22" fill="none" xmlns="http://www.w3.org/2000/svg">
<path d="M4.52939 5.70581H3.35293C2.72889 5.70581 2.13042 5.95371 1.68916 6.39497C1.2479 6.83623 1 7.4347 1 8.05874V18.6469C1 19.2709 1.2479 19.8694 1.68916 20.3107C2.13042 20.7519 2.72889 20.9998 3.35293 20.9998H13.9411C14.5651 20.9998 15.1636 20.7519 15.6049 20.3107C16.0461 19.8694 16.294 19.2709 16.294 18.6469V17.4704" stroke="white" stroke-width="2" stroke-linecap="round" stroke-linejoin="round"/>
<path d="M15.1176 3.35305L18.647 6.88244M20.2764 5.21775C20.7397 4.7544 21 4.12597 21 3.4707C21 2.81543 20.7397 2.187 20.2764 1.72365C19.813 1.2603 19.1846 1 18.5293 1C17.874 1 17.2456 1.2603 16.7823 1.72365L6.88232 11.5883V15.1177H10.4117L20.2764 5.21775Z" stroke="white" stroke-width="2" stroke-linecap="round" stroke-linejoin="round"/>
</svg>
